<?xml version="1.0" standalone="no"?>
<!DOCTYPE svg PUBLIC "-//W3C//DTD SVG 20010904//EN"
 "http://www.w3.org/TR/2001/REC-SVG-20010904/DTD/svg10.dtd">
<svg version="1.0" xmlns="http://www.w3.org/2000/svg"
 width="300.000000pt" height="200.000000pt" viewBox="0 0 500.000000 500.000000"
 preserveAspectRatio="xMidYMid meet">

<g transform="translate(0.000000,500.000000) scale(0.100000,-0.100000)"
fill="#000000" stroke="none">
<path d="M1140 3831 c0 -4 28 -11 62 -15 69 -7 111 -27 142 -69 21 -28 21 -35
24 -728 l3 -700 137 3 137 3 3 344 2 344 158 -6 c128 -5 169 -10 216 -27 112
-42 165 -126 186 -297 12 -96 6 -235 -15 -314 l-13 -50 136 3 137 3 23 59 c48
121 45 285 -8 393 -37 75 -36 104 9 175 54 85 174 122 382 116 l104 -3 3 -372
2 -373 140 0 140 0 0 376 0 377 153 -6 c176 -6 240 -22 296 -73 53 -47 81
-118 94 -236 6 -54 15 -98 19 -98 10 0 10 65 1 273 l-6 157 -699 0 -698 0 0
-82 c0 -46 -3 -93 -6 -104 -6 -21 -7 -21 -55 11 -72 49 -150 75 -279 95 -63
10 -102 19 -87 19 60 2 185 34 249 63 82 37 156 111 184 183 14 38 19 75 19
155 0 94 -3 111 -28 161 -66 136 -206 213 -437 239 -105 12 -830 13 -830 1z
m810 -36 c71 -22 137 -88 165 -165 17 -46 20 -80 20 -210 0 -178 -14 -237 -71
-300 -58 -64 -117 -83 -276 -88 l-138 -4 0 397 0 398 123 -6 c68 -3 146 -13
177 -22z"/>
<path d="M910 2030 l0 -71 36 3 c42 3 61 26 49 54 -5 11 -9 33 -9 49 -1 27 -4
30 -38 33 l-38 3 0 -71z m65 35 c0 -31 -49 -28 -53 3 -3 20 0 23 25 20 20 -2
28 -8 28 -23z m11 -50 c9 -21 -15 -47 -40 -43 -15 2 -22 12 -24 31 -3 24 0 27
28 27 18 0 33 -6 36 -15z"/>
<path d="M1200 2080 c-27 -27 -26 -71 3 -98 30 -28 68 -28 95 1 44 46 14 117
-48 117 -17 0 -39 -9 -50 -20z m90 -10 c11 -11 20 -29 20 -40 0 -11 -9 -29
-20 -40 -11 -11 -29 -20 -40 -20 -11 0 -29 9 -40 20 -11 11 -20 29 -20 40 0
11 9 29 20 40 11 11 29 20 40 20 11 0 29 -9 40 -20z"/>
<path d="M1520 2073 c-25 -32 -20 -69 12 -95 62 -54 149 30 98 95 -16 20 -30
27 -55 27 -25 0 -39 -7 -55 -27z m94 -2 c25 -27 17 -72 -15 -90 -24 -13 -29
-13 -53 2 -17 12 -26 26 -26 44 0 55 59 83 94 44z"/>
<path d="M1830 2030 c0 -40 4 -70 10 -70 6 0 10 15 10 32 l0 33 23 -32 c12
-18 26 -33 30 -33 4 0 -6 20 -23 44 -16 25 -30 56 -30 70 0 14 -4 26 -10 26
-6 0 -10 -30 -10 -70z"/>
<path d="M1875 2074 c-24 -37 -11 -41 15 -5 12 17 17 31 12 31 -5 0 -17 -12
-27 -26z"/>
<path d="M2090 2030 c0 -40 4 -70 10 -70 6 0 10 30 10 70 0 40 -4 70 -10 70
-6 0 -10 -30 -10 -70z"/>
<path d="M2302 2028 l1 -73 6 55 6 55 24 -33 c13 -18 25 -31 28 -28 5 4 -56
96 -64 96 -2 0 -2 -33 -1 -72z"/>
<path d="M2378 2043 c-2 -32 -1 -62 4 -67 4 -6 8 20 8 57 0 37 -2 67 -4 67 -2
0 -6 -26 -8 -57z"/>
<path d="M2602 2077 c-29 -30 -28 -62 3 -92 29 -30 68 -32 95 -5 30 30 26 50
-10 50 -16 0 -30 -4 -30 -10 0 -5 12 -10 28 -10 l27 -1 -24 -19 c-31 -26 -47
-25 -77 5 -57 57 24 129 83 73 13 -12 23 -16 23 -10 0 17 -42 42 -70 42 -15 0
-36 -10 -48 -23z"/>
<path d="M3133 2093 c14 -4 17 -17 19 -71 l1 -67 6 64 c5 52 10 66 26 72 14 5
6 7 -25 7 -25 0 -37 -2 -27 -5z"/>
<path d="M3402 2084 c-47 -33 -16 -124 43 -124 30 0 75 41 75 68 0 11 -9 31
-21 46 -24 30 -63 34 -97 10z m73 0 c27 -11 38 -53 21 -80 -21 -31 -52 -39
-81 -20 -60 40 -8 126 60 100z"/>
<path d="M3700 2052 c0 -56 21 -92 55 -92 39 0 55 25 55 86 0 30 -4 54 -10 54
-6 0 -10 -26 -10 -59 0 -49 -3 -61 -19 -66 -39 -12 -51 4 -51 66 0 33 -4 59
-10 59 -5 0 -10 -21 -10 -48z"/>
<path d="M4002 2028 c0 -40 3 -58 5 -40 5 40 16 40 43 2 12 -16 26 -30 32 -30
7 0 1 12 -13 26 -17 19 -20 28 -11 31 22 8 34 41 22 63 -8 14 -21 20 -45 20
l-35 0 2 -72z m63 32 c0 -20 -6 -26 -27 -28 -25 -3 -28 0 -28 28 0 28 3 31 28
28 21 -2 27 -8 27 -28z"/>
<path d="M2970 1683 c0 -82 -5 -166 -11 -188 -20 -72 -62 -101 -159 -112 -144
-15 -34 -23 310 -23 204 0 370 4 370 9 0 4 -30 11 -66 14 -79 8 -123 31 -146
77 -15 29 -18 63 -18 203 l0 167 -140 0 -140 0 0 -147z"/>
</g>
</svg>
